<?xml version="1.0" encoding="UTF-8"?>
<svg xmlns="http://www.w3.org/2000/svg" xmlns:xlink="http://www.w3.org/1999/xlink"
     width="1000" height="1000" viewBox="0 0 1000 1000">
<defs>
</defs>
<path d="M99.08519648249977,371.72784291094644 L99.08519648249977,437.7438950309804 L55.84880455843544,437.7438950309804 L55.84880455843544,950.0 L50.0,950.0 L50.0,912.280403353177 L67.22423984231347,912.280403353177 L67.22423984231347,876.0862137042886 L73.30492348010307,876.0862137042886 L73.30492348010307,860.8759567488762 L76.82059051154872,860.8759567488762 L76.82059051154872,844.5484297169238 L95.03905898181233,844.5484297169238 L95.03905898181233,823.196148706111 L131.11033355358225,823.196148706111 L131.11033355358225,804.7488154537723 L145.02693399944684,804.7488154537723 L145.02693399944684,664.6508625926376 L182.93432145131555,664.6508625926376 L182.93432145131555,636.0168114445389 L211.49902641472738,636.0168114445389 L211.49902641472738,611.9320252703195 L226.76547514388577,611.9320252703195 L226.76547514388577,189.82816486453652 L230.038144377555,189.82816486453652 L230.038144377555,181.72571680233264 L235.3711838685329,181.72571680233264 L235.3711838685329,151.34035961608552 L269.62114062907233,151.34035961608552 L269.62114062907233,60.634035961608554 L272.91075694162714,60.634035961608554 L272.91075694162714,54.8540578301543 L446.2036052544114,54.8540578301543 L446.2036052544114,50.0 L463.7822094128918,50.0 L463.7822094128918,59.12457477827724 L484.3521971623755,59.12457477827724 L484.3521971623755,90.80746567853237 L514.5344066549715,90.80746567853237 L514.5344066549715,187.08829425343214 L531.8201581169434,187.08829425343214 L531.8201581169434,192.829167172883 L554.6585437587325,192.829167172883 L554.6585437587325,201.3768831247722 L555.1978016022113,201.3768831247722 L555.1978016022113,241.37369396185153 L580.5165581230009,241.37369396185153 L580.5165581230009,259.53817883610736 L623.6570062671314,259.53817883610736 L623.6570062671314,283.6610831004738 L626.0935299420312,283.6610831004738 L626.0935299420312,455.62044405297047 L628.854289792857,455.62044405297047 L628.854289792857,458.66898007532495 L670.852110284934,458.66898007532495 L670.852110284934,489.2363473454015 L697.9130085817377,489.2363473454015 L697.9130085817377,528.0694174462399 L702.6467132829231,528.0694174462399 L702.6467132829231,658.2708662373952 L730.6490262951712,658.2708662373952 L730.6490262951712,680.6164955655448 L743.1999970509492,680.6164955655448 L743.1999970509492,692.7537662495444 L782.9254742990225,692.7537662495444 L782.9254742990225,832.4291550236909 L768.5991849461319,832.4291550236909 L768.5991849461319,827.3173824565666 L780.826188527236,827.3173824565666 L780.826188527236,712.800464706597 L789.5395874198276,712.800464706597 L789.5395874198276,701.2477220264852 L791.022411988768,701.2477220264852 L791.022411988768,656.207553760175 L821.9251861687925,656.207553760175 L821.9251861687925,627.1042400680354 L874.7620534479584,627.1042400680354 L874.7620534479584,343.4367786417203 L918.6742661845101,343.4367786417203 L918.6742661845101,337.12519742437127 L921.7268027268358,337.12519742437127 L921.7268027268358,409.18752277973516 L941.2340561961548,409.18752277973516 L941.2340561961548,447.1908030615964 L949.9999999999999,447.1908030615964 L949.9999999999999,478.3711730044952 L918.5139414382281,478.3711730044952 L918.5139414382281,479.107869639169 L887.1928703111089,479.107869639169 L887.1928703111089,483.2078423034868 L855.9169017272669,483.2078423034868 L855.9169017272669,513.5805947029522 L841.5290110876338,513.5805947029522 L841.5290110876338,530.014351233143 L821.3991093866691,530.014351233143 L821.3991093866691,536.465572226947 L791.022411988768,536.465572226947 L791.022411988768,526.6254859676831 L749.4419021058613,526.6254859676831 L749.4419021058613,495.1723666626169 L715.4625606049858,495.1723666626169 L715.4625606049858,361.6162222087231 L751.3033907707463,361.6162222087231 L751.3033907707463,371.72784291094644 Z" fill="none" stroke="black" stroke-width="3" />
<text x="99.08519648249977" y="371.72784291094644" font-size="10">0</text>
<text x="99.08519648249977" y="437.7438950309804" font-size="10">1</text>
<text x="55.84880455843544" y="437.7438950309804" font-size="10">2</text>
<text x="55.84880455843544" y="950.0" font-size="10">3</text>
<text x="50.0" y="950.0" font-size="10">4</text>
<text x="50.0" y="912.280403353177" font-size="10">5</text>
<text x="67.22423984231347" y="912.280403353177" font-size="10">6</text>
<text x="67.22423984231347" y="876.0862137042886" font-size="10">7</text>
<text x="73.30492348010307" y="876.0862137042886" font-size="10">8</text>
<text x="73.30492348010307" y="860.8759567488762" font-size="10">9</text>
<text x="76.82059051154872" y="860.8759567488762" font-size="10">10</text>
<text x="76.82059051154872" y="844.5484297169238" font-size="10">11</text>
<text x="95.03905898181233" y="844.5484297169238" font-size="10">12</text>
<text x="95.03905898181233" y="823.196148706111" font-size="10">13</text>
<text x="131.11033355358225" y="823.196148706111" font-size="10">14</text>
<text x="131.11033355358225" y="804.7488154537723" font-size="10">15</text>
<text x="145.02693399944684" y="804.7488154537723" font-size="10">16</text>
<text x="145.02693399944684" y="664.6508625926376" font-size="10">17</text>
<text x="182.93432145131555" y="664.6508625926376" font-size="10">18</text>
<text x="182.93432145131555" y="636.0168114445389" font-size="10">19</text>
<text x="211.49902641472738" y="636.0168114445389" font-size="10">20</text>
<text x="211.49902641472738" y="611.9320252703195" font-size="10">21</text>
<text x="226.76547514388577" y="611.9320252703195" font-size="10">22</text>
<text x="226.76547514388577" y="189.82816486453652" font-size="10">23</text>
<text x="230.038144377555" y="189.82816486453652" font-size="10">24</text>
<text x="230.038144377555" y="181.72571680233264" font-size="10">25</text>
<text x="235.3711838685329" y="181.72571680233264" font-size="10">26</text>
<text x="235.3711838685329" y="151.34035961608552" font-size="10">27</text>
<text x="269.62114062907233" y="151.34035961608552" font-size="10">28</text>
<text x="269.62114062907233" y="60.634035961608554" font-size="10">29</text>
<text x="272.91075694162714" y="60.634035961608554" font-size="10">30</text>
<text x="272.91075694162714" y="54.8540578301543" font-size="10">31</text>
<text x="446.2036052544114" y="54.8540578301543" font-size="10">32</text>
<text x="446.2036052544114" y="50.0" font-size="10">33</text>
<text x="463.7822094128918" y="50.0" font-size="10">34</text>
<text x="463.7822094128918" y="59.12457477827724" font-size="10">35</text>
<text x="484.3521971623755" y="59.12457477827724" font-size="10">36</text>
<text x="484.3521971623755" y="90.80746567853237" font-size="10">37</text>
<text x="514.5344066549715" y="90.80746567853237" font-size="10">38</text>
<text x="514.5344066549715" y="187.08829425343214" font-size="10">39</text>
<text x="531.8201581169434" y="187.08829425343214" font-size="10">40</text>
<text x="531.8201581169434" y="192.829167172883" font-size="10">41</text>
<text x="554.6585437587325" y="192.829167172883" font-size="10">42</text>
<text x="554.6585437587325" y="201.3768831247722" font-size="10">43</text>
<text x="555.1978016022113" y="201.3768831247722" font-size="10">44</text>
<text x="555.1978016022113" y="241.37369396185153" font-size="10">45</text>
<text x="580.5165581230009" y="241.37369396185153" font-size="10">46</text>
<text x="580.5165581230009" y="259.53817883610736" font-size="10">47</text>
<text x="623.6570062671314" y="259.53817883610736" font-size="10">48</text>
<text x="623.6570062671314" y="283.6610831004738" font-size="10">49</text>
<text x="626.0935299420312" y="283.6610831004738" font-size="10">50</text>
<text x="626.0935299420312" y="455.62044405297047" font-size="10">51</text>
<text x="628.854289792857" y="455.62044405297047" font-size="10">52</text>
<text x="628.854289792857" y="458.66898007532495" font-size="10">53</text>
<text x="670.852110284934" y="458.66898007532495" font-size="10">54</text>
<text x="670.852110284934" y="489.2363473454015" font-size="10">55</text>
<text x="697.9130085817377" y="489.2363473454015" font-size="10">56</text>
<text x="697.9130085817377" y="528.0694174462399" font-size="10">57</text>
<text x="702.6467132829231" y="528.0694174462399" font-size="10">58</text>
<text x="702.6467132829231" y="658.2708662373952" font-size="10">59</text>
<text x="730.6490262951712" y="658.2708662373952" font-size="10">60</text>
<text x="730.6490262951712" y="680.6164955655448" font-size="10">61</text>
<text x="743.1999970509492" y="680.6164955655448" font-size="10">62</text>
<text x="743.1999970509492" y="692.7537662495444" font-size="10">63</text>
<text x="782.9254742990225" y="692.7537662495444" font-size="10">64</text>
<text x="782.9254742990225" y="832.4291550236909" font-size="10">65</text>
<text x="768.5991849461319" y="832.4291550236909" font-size="10">66</text>
<text x="768.5991849461319" y="827.3173824565666" font-size="10">67</text>
<text x="780.826188527236" y="827.3173824565666" font-size="10">68</text>
<text x="780.826188527236" y="712.800464706597" font-size="10">69</text>
<text x="789.5395874198276" y="712.800464706597" font-size="10">70</text>
<text x="789.5395874198276" y="701.2477220264852" font-size="10">71</text>
<text x="791.022411988768" y="701.2477220264852" font-size="10">72</text>
<text x="791.022411988768" y="656.207553760175" font-size="10">73</text>
<text x="821.9251861687925" y="656.207553760175" font-size="10">74</text>
<text x="821.9251861687925" y="627.1042400680354" font-size="10">75</text>
<text x="874.7620534479584" y="627.1042400680354" font-size="10">76</text>
<text x="874.7620534479584" y="343.4367786417203" font-size="10">77</text>
<text x="918.6742661845101" y="343.4367786417203" font-size="10">78</text>
<text x="918.6742661845101" y="337.12519742437127" font-size="10">79</text>
<text x="921.7268027268358" y="337.12519742437127" font-size="10">80</text>
<text x="921.7268027268358" y="409.18752277973516" font-size="10">81</text>
<text x="941.2340561961548" y="409.18752277973516" font-size="10">82</text>
<text x="941.2340561961548" y="447.1908030615964" font-size="10">83</text>
<text x="949.9999999999999" y="447.1908030615964" font-size="10">84</text>
<text x="949.9999999999999" y="478.3711730044952" font-size="10">85</text>
<text x="918.5139414382281" y="478.3711730044952" font-size="10">86</text>
<text x="918.5139414382281" y="479.107869639169" font-size="10">87</text>
<text x="887.1928703111089" y="479.107869639169" font-size="10">88</text>
<text x="887.1928703111089" y="483.2078423034868" font-size="10">89</text>
<text x="855.9169017272669" y="483.2078423034868" font-size="10">90</text>
<text x="855.9169017272669" y="513.5805947029522" font-size="10">91</text>
<text x="841.5290110876338" y="513.5805947029522" font-size="10">92</text>
<text x="841.5290110876338" y="530.014351233143" font-size="10">93</text>
<text x="821.3991093866691" y="530.014351233143" font-size="10">94</text>
<text x="821.3991093866691" y="536.465572226947" font-size="10">95</text>
<text x="791.022411988768" y="536.465572226947" font-size="10">96</text>
<text x="791.022411988768" y="526.6254859676831" font-size="10">97</text>
<text x="749.4419021058613" y="526.6254859676831" font-size="10">98</text>
<text x="749.4419021058613" y="495.1723666626169" font-size="10">99</text>
<text x="715.4625606049858" y="495.1723666626169" font-size="10">100</text>
<text x="715.4625606049858" y="361.6162222087231" font-size="10">101</text>
<text x="751.3033907707463" y="361.6162222087231" font-size="10">102</text>
<text x="751.3033907707463" y="371.72784291094644" font-size="10">103</text>
</svg>