<?xml version="1.0" encoding="UTF-8"?>
<svg xmlns="http://www.w3.org/2000/svg" xmlns:xlink="http://www.w3.org/1999/xlink"
     width="1000" height="1000" viewBox="0 0 1000 1000">
<defs>
</defs>
<path d="M97.51755180957818,50.0 L97.51755180957818,159.91428263594415 L50.0,159.91428263594415 L50.0,950.0 L62.50180256501306,950.0 L62.50180256501306,889.7380142694175 L69.18458035793768,889.7380142694175 L69.18458035793768,864.4134995752831 L73.04835998611162,864.4134995752831 L73.04835998611162,837.2287715689349 L93.07077584697562,837.2287715689349 L93.07077584697562,801.6780142216571 L846.7628396007849,801.6780142216571 L846.7628396007849,617.873287594743 L856.3390175585436,617.873287594743 L856.3390175585436,598.6383987550818 L857.9686677246095,598.6383987550818 L857.9686677246095,523.6481861353943 L891.9313576673314,523.6481861353943 L891.9313576673314,475.19224634390247 L950.0000000000001,475.19224634390247 L950.0000000000001,235.61007161117487 L812.2709592733635,235.61007161117487 L812.2709592733635,50.0 Z" fill="none" stroke="black" stroke-width="3" />
<text x="97.51755180957818" y="50.0" font-size="10">0</text>
<text x="97.51755180957818" y="159.91428263594415" font-size="10">1</text>
<text x="50.0" y="159.91428263594415" font-size="10">2</text>
<text x="50.0" y="950.0" font-size="10">3</text>
<text x="62.50180256501306" y="950.0" font-size="10">4</text>
<text x="62.50180256501306" y="889.7380142694175" font-size="10">5</text>
<text x="69.18458035793768" y="889.7380142694175" font-size="10">6</text>
<text x="69.18458035793768" y="864.4134995752831" font-size="10">7</text>
<text x="73.04835998611162" y="864.4134995752831" font-size="10">8</text>
<text x="73.04835998611162" y="837.2287715689349" font-size="10">9</text>
<text x="93.07077584697562" y="837.2287715689349" font-size="10">10</text>
<text x="93.07077584697562" y="801.6780142216571" font-size="10">11</text>
<text x="846.7628396007849" y="801.6780142216571" font-size="10">12</text>
<text x="846.7628396007849" y="617.873287594743" font-size="10">13</text>
<text x="856.3390175585436" y="617.873287594743" font-size="10">14</text>
<text x="856.3390175585436" y="598.6383987550818" font-size="10">15</text>
<text x="857.9686677246095" y="598.6383987550818" font-size="10">16</text>
<text x="857.9686677246095" y="523.6481861353943" font-size="10">17</text>
<text x="891.9313576673314" y="523.6481861353943" font-size="10">18</text>
<text x="891.9313576673314" y="475.19224634390247" font-size="10">19</text>
<text x="950.0000000000001" y="475.19224634390247" font-size="10">20</text>
<text x="950.0000000000001" y="235.61007161117487" font-size="10">21</text>
<text x="812.2709592733635" y="235.61007161117487" font-size="10">22</text>
<text x="812.2709592733635" y="50.0" font-size="10">23</text>
</svg>