<?xml version="1.0" encoding="UTF-8"?>
<svg xmlns="http://www.w3.org/2000/svg" xmlns:xlink="http://www.w3.org/1999/xlink"
     width="1000" height="1000" viewBox="0 0 1000 1000">
<defs>
</defs>
<path d="M92.22961352909292,949.9999999999999 L92.22961352909292,899.9168090438166 L66.86330714361605,899.9168090438166 L66.86330714361605,851.6357269961046 L50.0,851.6357269961046 L50.0,784.2098492675735 L55.322258678532776,784.2098492675735 L55.322258678532776,740.441970627284 L114.88829602364098,740.441970627284 L114.88829602364098,671.280334715443 L126.041991186857,671.280334715443 L126.041991186857,601.6497945534802 L129.51939197597005,601.6497945534802 L129.51939197597005,575.4683400432751 L133.70889886135058,575.4683400432751 L133.70889886135058,548.293172194425 L162.6830068772769,548.293172194425 L162.6830068772769,575.4683400432751 L169.01112807870243,575.4683400432751 L169.01112807870243,601.6497945534802 L187.8574599275716,601.6497945534802 L187.8574599275716,654.5195225241044 L631.6961383522988,654.5195225241044 L631.6961383522988,717.9483010281031 L614.7101288116303,717.9483010281031 L614.7101288116303,669.5735928842447 L584.0281141782833,669.5735928842447 L584.0281141782833,622.2457947245692 L601.2444692755539,622.2457947245692 L601.2444692755539,544.4191023028452 L636.4623532568471,544.4191023028452 L636.4623532568471,530.3241191011637 L655.8635808660795,530.3241191011637 L655.8635808660795,467.4514873459688 L656.9398098709363,467.4514873459688 L656.9398098709363,297.61007353173494 L658.4435726544056,297.61007353173494 L658.4435726544056,142.68267781811647 L668.3119652732632,142.68267781811647 L668.3119652732632,55.68643124446405 L729.0283122669082,55.68643124446405 L729.0283122669082,50.0 L910.2823078045118,50.0 L910.2823078045118,74.35129646135914 L929.3176567196164,74.35129646135914 L929.3176567196164,116.45421681749079 L950.0,116.45421681749079 L950.0,143.07613955274837 L921.932552624044,143.07613955274837 L921.932552624044,224.12693557875477 L896.9808817464934,224.12693557875477 L896.9808817464934,288.6049453751051 L573.0628958395987,288.6049453751051 L573.0628958395987,322.78369341193394 L557.1456869803551,322.78369341193394 L557.1456869803551,386.68427780126547 L544.0629237520867,386.68427780126547 L544.0629237520867,401.7112662327683 L468.6468701096871,401.7112662327683 L468.6468701096871,436.15696470902293 L448.8128413652268,436.15696470902293 L448.8128413652268,474.2461497987447 L93.04240717296918,474.2461497987447 L93.04240717296918,949.9999999999999 Z" fill="none" stroke="black" stroke-width="3" />
<text x="92.22961352909292" y="949.9999999999999" font-size="10">0</text>
<text x="92.22961352909292" y="899.9168090438166" font-size="10">1</text>
<text x="66.86330714361605" y="899.9168090438166" font-size="10">2</text>
<text x="66.86330714361605" y="851.6357269961046" font-size="10">3</text>
<text x="50.0" y="851.6357269961046" font-size="10">4</text>
<text x="50.0" y="784.2098492675735" font-size="10">5</text>
<text x="55.322258678532776" y="784.2098492675735" font-size="10">6</text>
<text x="55.322258678532776" y="740.441970627284" font-size="10">7</text>
<text x="114.88829602364098" y="740.441970627284" font-size="10">8</text>
<text x="114.88829602364098" y="671.280334715443" font-size="10">9</text>
<text x="126.041991186857" y="671.280334715443" font-size="10">10</text>
<text x="126.041991186857" y="601.6497945534802" font-size="10">11</text>
<text x="129.51939197597005" y="601.6497945534802" font-size="10">12</text>
<text x="129.51939197597005" y="575.4683400432751" font-size="10">13</text>
<text x="133.70889886135058" y="575.4683400432751" font-size="10">14</text>
<text x="133.70889886135058" y="548.293172194425" font-size="10">15</text>
<text x="162.6830068772769" y="548.293172194425" font-size="10">16</text>
<text x="162.6830068772769" y="575.4683400432751" font-size="10">17</text>
<text x="169.01112807870243" y="575.4683400432751" font-size="10">18</text>
<text x="169.01112807870243" y="601.6497945534802" font-size="10">19</text>
<text x="187.8574599275716" y="601.6497945534802" font-size="10">20</text>
<text x="187.8574599275716" y="654.5195225241044" font-size="10">21</text>
<text x="631.6961383522988" y="654.5195225241044" font-size="10">22</text>
<text x="631.6961383522988" y="717.9483010281031" font-size="10">23</text>
<text x="614.7101288116303" y="717.9483010281031" font-size="10">24</text>
<text x="614.7101288116303" y="669.5735928842447" font-size="10">25</text>
<text x="584.0281141782833" y="669.5735928842447" font-size="10">26</text>
<text x="584.0281141782833" y="622.2457947245692" font-size="10">27</text>
<text x="601.2444692755539" y="622.2457947245692" font-size="10">28</text>
<text x="601.2444692755539" y="544.4191023028452" font-size="10">29</text>
<text x="636.4623532568471" y="544.4191023028452" font-size="10">30</text>
<text x="636.4623532568471" y="530.3241191011637" font-size="10">31</text>
<text x="655.8635808660795" y="530.3241191011637" font-size="10">32</text>
<text x="655.8635808660795" y="467.4514873459688" font-size="10">33</text>
<text x="656.9398098709363" y="467.4514873459688" font-size="10">34</text>
<text x="656.9398098709363" y="297.61007353173494" font-size="10">35</text>
<text x="658.4435726544056" y="297.61007353173494" font-size="10">36</text>
<text x="658.4435726544056" y="142.68267781811647" font-size="10">37</text>
<text x="668.3119652732632" y="142.68267781811647" font-size="10">38</text>
<text x="668.3119652732632" y="55.68643124446405" font-size="10">39</text>
<text x="729.0283122669082" y="55.68643124446405" font-size="10">40</text>
<text x="729.0283122669082" y="50.0" font-size="10">41</text>
<text x="910.2823078045118" y="50.0" font-size="10">42</text>
<text x="910.2823078045118" y="74.35129646135914" font-size="10">43</text>
<text x="929.3176567196164" y="74.35129646135914" font-size="10">44</text>
<text x="929.3176567196164" y="116.45421681749079" font-size="10">45</text>
<text x="950.0" y="116.45421681749079" font-size="10">46</text>
<text x="950.0" y="143.07613955274837" font-size="10">47</text>
<text x="921.932552624044" y="143.07613955274837" font-size="10">48</text>
<text x="921.932552624044" y="224.12693557875477" font-size="10">49</text>
<text x="896.9808817464934" y="224.12693557875477" font-size="10">50</text>
<text x="896.9808817464934" y="288.6049453751051" font-size="10">51</text>
<text x="573.0628958395987" y="288.6049453751051" font-size="10">52</text>
<text x="573.0628958395987" y="322.78369341193394" font-size="10">53</text>
<text x="557.1456869803551" y="322.78369341193394" font-size="10">54</text>
<text x="557.1456869803551" y="386.68427780126547" font-size="10">55</text>
<text x="544.0629237520867" y="386.68427780126547" font-size="10">56</text>
<text x="544.0629237520867" y="401.7112662327683" font-size="10">57</text>
<text x="468.6468701096871" y="401.7112662327683" font-size="10">58</text>
<text x="468.6468701096871" y="436.15696470902293" font-size="10">59</text>
<text x="448.8128413652268" y="436.15696470902293" font-size="10">60</text>
<text x="448.8128413652268" y="474.2461497987447" font-size="10">61</text>
<text x="93.04240717296918" y="474.2461497987447" font-size="10">62</text>
<text x="93.04240717296918" y="949.9999999999999" font-size="10">63</text>
</svg>