<?xml version="1.0" encoding="UTF-8"?>
<svg xmlns="http://www.w3.org/2000/svg" xmlns:xlink="http://www.w3.org/1999/xlink"
     width="1000" height="1000" viewBox="0 0 1000 1000">
<defs>
</defs>
<path d="M84.7740704582084,950.0000000000001 L84.7740704582084,812.2391064877507 L880.3855353305069,812.2391064877507 L880.3855353305069,559.5481962915029 L915.0105117117023,559.5481962915029 L915.0105117117023,531.4728413016517 L945.8931945116946,531.4728413016517 L945.8931945116946,406.2388179320661 L947.6063252293263,406.2388179320661 L947.6063252293263,67.93703235462723 L950.0,67.93703235462723 L950.0,50.0 L814.0918805537036,50.0 L814.0918805537036,118.0795762940802 L788.7550244453134,118.0795762940802 L788.7550244453134,245.36114627675403 L767.9300109428818,245.36114627675403 L767.9300109428818,275.2929332541589 L647.883480404932,275.2929332541589 L647.883480404932,343.90423975638026 L616.3118690255772,343.90423975638026 L616.3118690255772,419.77289297623787 L50.0,419.77289297623787 L50.0,950.0000000000001 Z" fill="none" stroke="black" stroke-width="3" />
<text x="84.7740704582084" y="950.0000000000001" font-size="10">0</text>
<text x="84.7740704582084" y="812.2391064877507" font-size="10">1</text>
<text x="880.3855353305069" y="812.2391064877507" font-size="10">2</text>
<text x="880.3855353305069" y="559.5481962915029" font-size="10">3</text>
<text x="915.0105117117023" y="559.5481962915029" font-size="10">4</text>
<text x="915.0105117117023" y="531.4728413016517" font-size="10">5</text>
<text x="945.8931945116946" y="531.4728413016517" font-size="10">6</text>
<text x="945.8931945116946" y="406.2388179320661" font-size="10">7</text>
<text x="947.6063252293263" y="406.2388179320661" font-size="10">8</text>
<text x="947.6063252293263" y="67.93703235462723" font-size="10">9</text>
<text x="950.0" y="67.93703235462723" font-size="10">10</text>
<text x="950.0" y="50.0" font-size="10">11</text>
<text x="814.0918805537036" y="50.0" font-size="10">12</text>
<text x="814.0918805537036" y="118.0795762940802" font-size="10">13</text>
<text x="788.7550244453134" y="118.0795762940802" font-size="10">14</text>
<text x="788.7550244453134" y="245.36114627675403" font-size="10">15</text>
<text x="767.9300109428818" y="245.36114627675403" font-size="10">16</text>
<text x="767.9300109428818" y="275.2929332541589" font-size="10">17</text>
<text x="647.883480404932" y="275.2929332541589" font-size="10">18</text>
<text x="647.883480404932" y="343.90423975638026" font-size="10">19</text>
<text x="616.3118690255772" y="343.90423975638026" font-size="10">20</text>
<text x="616.3118690255772" y="419.77289297623787" font-size="10">21</text>
<text x="50.0" y="419.77289297623787" font-size="10">22</text>
<text x="50.0" y="950.0000000000001" font-size="10">23</text>
</svg>