<?xml version="1.0" encoding="UTF-8"?>
<svg xmlns="http://www.w3.org/2000/svg" xmlns:xlink="http://www.w3.org/1999/xlink"
     width="1000" height="1000" viewBox="0 0 1000 1000">
<defs>
</defs>
<path d="M72.94314226301869,950.0 L72.94314226301869,859.8469169478424 L597.8695251721279,859.8469169478424 L597.8695251721279,857.6221569920087 L583.7275259834761,857.6221569920087 L583.7275259834761,694.4816668202942 L620.7142985478001,694.4816668202942 L620.7142985478001,676.108674706289 L641.0899915744601,676.108674706289 L641.0899915744601,594.1533895600716 L642.2202763312306,594.1533895600716 L642.2202763312306,372.7629194906814 L643.7995686047931,372.7629194906814 L643.7995686047931,170.8130640733221 L654.1636209585068,170.8130640733221 L654.1636209585068,57.41233635517263 L717.9295677820973,57.41233635517263 L717.9295677820973,50.0 L908.2874073639787,50.0 L908.2874073639787,81.7422285254644 L928.2788447081274,81.7422285254644 L928.2788447081274,136.6239273974088 L950.0000000000001,136.6239273974088 L950.0000000000001,171.32594651128716 L920.5228090050203,171.32594651128716 L920.5228090050203,276.97670287699987 L894.3178906079345,276.97670287699987 L894.3178906079345,361.0246189734002 L554.1304767191269,361.0246189734002 L554.1304767191269,405.5770571822173 L537.4137942447228,405.5770571822173 L537.4137942447228,488.8722918246719 L523.6739230959083,488.8722918246719 L523.6739230959083,508.46016475780976 L444.46994748931206,508.46016475780976 L444.46994748931206,553.3605763021194 L423.63971502573526,553.3605763021194 L423.63971502573526,603.01031956672 L50.0,603.01031956672 L50.0,950.0 Z" fill="none" stroke="black" stroke-width="3" />
<text x="72.94314226301869" y="950.0" font-size="10">0</text>
<text x="72.94314226301869" y="859.8469169478424" font-size="10">1</text>
<text x="597.8695251721279" y="859.8469169478424" font-size="10">2</text>
<text x="597.8695251721279" y="857.6221569920087" font-size="10">3</text>
<text x="583.7275259834761" y="857.6221569920087" font-size="10">4</text>
<text x="583.7275259834761" y="694.4816668202942" font-size="10">5</text>
<text x="620.7142985478001" y="694.4816668202942" font-size="10">6</text>
<text x="620.7142985478001" y="676.108674706289" font-size="10">7</text>
<text x="641.0899915744601" y="676.108674706289" font-size="10">8</text>
<text x="641.0899915744601" y="594.1533895600716" font-size="10">9</text>
<text x="642.2202763312306" y="594.1533895600716" font-size="10">10</text>
<text x="642.2202763312306" y="372.7629194906814" font-size="10">11</text>
<text x="643.7995686047931" y="372.7629194906814" font-size="10">12</text>
<text x="643.7995686047931" y="170.8130640733221" font-size="10">13</text>
<text x="654.1636209585068" y="170.8130640733221" font-size="10">14</text>
<text x="654.1636209585068" y="57.41233635517263" font-size="10">15</text>
<text x="717.9295677820973" y="57.41233635517263" font-size="10">16</text>
<text x="717.9295677820973" y="50.0" font-size="10">17</text>
<text x="908.2874073639787" y="50.0" font-size="10">18</text>
<text x="908.2874073639787" y="81.7422285254644" font-size="10">19</text>
<text x="928.2788447081274" y="81.7422285254644" font-size="10">20</text>
<text x="928.2788447081274" y="136.6239273974088" font-size="10">21</text>
<text x="950.0000000000001" y="136.6239273974088" font-size="10">22</text>
<text x="950.0000000000001" y="171.32594651128716" font-size="10">23</text>
<text x="920.5228090050203" y="171.32594651128716" font-size="10">24</text>
<text x="920.5228090050203" y="276.97670287699987" font-size="10">25</text>
<text x="894.3178906079345" y="276.97670287699987" font-size="10">26</text>
<text x="894.3178906079345" y="361.0246189734002" font-size="10">27</text>
<text x="554.1304767191269" y="361.0246189734002" font-size="10">28</text>
<text x="554.1304767191269" y="405.5770571822173" font-size="10">29</text>
<text x="537.4137942447228" y="405.5770571822173" font-size="10">30</text>
<text x="537.4137942447228" y="488.8722918246719" font-size="10">31</text>
<text x="523.6739230959083" y="488.8722918246719" font-size="10">32</text>
<text x="523.6739230959083" y="508.46016475780976" font-size="10">33</text>
<text x="444.46994748931206" y="508.46016475780976" font-size="10">34</text>
<text x="444.46994748931206" y="553.3605763021194" font-size="10">35</text>
<text x="423.63971502573526" y="553.3605763021194" font-size="10">36</text>
<text x="423.63971502573526" y="603.01031956672" font-size="10">37</text>
<text x="50.0" y="603.01031956672" font-size="10">38</text>
<text x="50.0" y="950.0" font-size="10">39</text>
</svg>