<?xml version="1.0" encoding="UTF-8"?>
<svg xmlns="http://www.w3.org/2000/svg" xmlns:xlink="http://www.w3.org/1999/xlink"
     width="1000" height="1000" viewBox="0 0 1000 1000">
<defs>
</defs>
<path d="M506.33439236325194,236.85549771472816 L506.33439236325194,234.9597871336114 L505.5350807424762,234.9597871336114 L505.5350807424762,176.55886544121933 L491.95107734657216,176.55886544121933 L491.95107734657216,174.92675643069896 L468.269046318118,174.92675643069896 L468.269046318118,144.73314749671212 L50.0,144.73314749671212 L50.0,92.52165592362594 L86.79240999487399,92.52165592362594 L86.79240999487399,66.28370159114475 L107.14389967440667,66.28370159114475 L107.14389967440667,56.455854648178544 L132.9677296426733,56.455854648178544 L132.9677296426733,50.0 L146.53599952787735,50.0 L146.53599952787735,94.70932312291397 L148.88398841328424,94.70932312291397 L148.88398841328424,164.5937881535009 L200.03884100460283,164.5937881535009 L200.03884100460283,169.38949240561493 L211.66238561086558,169.38949240561493 L211.66238561086558,213.98878288816096 L224.61454952002234,213.98878288816096 L224.61454952002234,328.80815677413796 L231.01206951513214,328.80815677413796 L231.01206951513214,355.1134229784064 L242.38204765364782,355.1134229784064 L242.38204765364782,373.3467850199475 L343.1864747186183,373.3467850199475 L343.1864747186183,380.0437203049185 L390.74539296173543,380.0437203049185 L390.74539296173543,380.0685623377496 L397.0097236850581,380.0685623377496 L397.0097236850581,402.16153566699745 L416.9344726851119,402.16153566699745 L416.9344726851119,445.22896352403336 L429.8630891252344,445.22896352403336 L429.8630891252344,493.4097098054654 L447.1334505583519,493.4097098054654 L447.1334505583519,528.6882193838674 L470.3719866543223,528.6882193838674 L470.3719866543223,546.0226260454356 L501.27228488706544,546.0226260454356 L501.27228488706544,580.397412580998 L506.17758522640946,580.397412580998 L506.17758522640946,705.8038837214425 L579.1359862230294,705.8038837214425 L579.1359862230294,713.9950421882402 L587.1641244512483,713.9950421882402 L587.1641244512483,774.7526949144651 L589.6239022180496,774.7526949144651 L589.6239022180496,802.793390402165 L613.3099458197024,802.793390402165 L613.3099458197024,803.322538247948 L618.9366997805639,803.322538247948 L618.9366997805639,807.0507878771995 L642.8462859469948,807.0507878771995 L642.8462859469948,843.896039298925 L670.5846061031708,843.896039298925 L670.5846061031708,944.027435808717 L950.0,944.027435808717 L950.0,950.0 L923.0544094366336,950.0 L923.0544094366336,917.8458779093547 L907.6065657899508,917.8458779093547 L907.6065657899508,910.9522137987316 L883.8082757327669,910.9522137987316 L883.8082757327669,885.2459793406853 L856.8764475915116,885.2459793406853 L856.8764475915116,852.0629203245468 L854.2030530988974,852.0629203245468 L854.2030530988974,836.2449441165786 L824.598112049112,836.2449441165786 L824.598112049112,687.9400782844666 L809.8548621769102,687.9400782844666 L809.8548621769102,676.6986820339687 L796.4467080415369,676.6986820339687 L796.4467080415369,663.1560101966647 L807.382096344229,663.1560101966647 L807.382096344229,593.8141804791808 L828.2670470711207,593.8141804791808 L828.2670470711207,514.0085854176989 L835.6710893749056,514.0085854176989 L835.6710893749056,546.0033044643448 L807.454322661805,546.0033044643448 L807.454322661805,553.2660233202841 L786.0798380046764,553.2660233202841 L786.0798380046764,548.9376754939062 L746.6626771677194,548.9376754939062 L746.6626771677194,498.0642034113604 L690.0369626041083,498.0642034113604 L690.0369626041083,479.5044446606776 L700.8586261348279,479.5044446606776 L700.8586261348279,502.4269913287086 L708.8791967907862,502.4269913287086 L708.8791967907862,552.0897907051764 L706.5358540427673,552.0897907051764 L706.5358540427673,580.8084980384274 L700.1151737567388,580.8084980384274 L700.1151737567388,598.4708069868844 L669.0526126955235,598.4708069868844 L669.0526126955235,605.4080073873681 L655.5697331838278,605.4080073873681 L655.5697331838278,639.3033928752158 L637.6641180569432,639.3033928752158 L637.6641180569432,650.8266458264967 L624.4670815886363,650.8266458264967 L624.4670815886363,691.5981303512485 L614.7537330130001,691.5981303512485 L614.7537330130001,726.8756362111523 L594.7296904252846,726.8756362111523 L594.7296904252846,656.0237747454946 L591.9618948684703,656.0237747454946 L591.9618948684703,650.8266458264967 L578.6812631251914,650.8266458264967 L578.6812631251914,480.14738909119706 L575.8420860030535,480.14738909119706 L575.8420860030535,464.11148050430165 L547.041313899495,464.11148050430165 L547.041313899495,461.6361224904598 L522.7292384828297,461.6361224904598 L522.7292384828297,236.85549771472816 Z" fill="none" stroke="black" stroke-width="3" />
<text x="506.33439236325194" y="236.85549771472816" font-size="10">0</text>
<text x="506.33439236325194" y="234.9597871336114" font-size="10">1</text>
<text x="505.5350807424762" y="234.9597871336114" font-size="10">2</text>
<text x="505.5350807424762" y="176.55886544121933" font-size="10">3</text>
<text x="491.95107734657216" y="176.55886544121933" font-size="10">4</text>
<text x="491.95107734657216" y="174.92675643069896" font-size="10">5</text>
<text x="468.269046318118" y="174.92675643069896" font-size="10">6</text>
<text x="468.269046318118" y="144.73314749671212" font-size="10">7</text>
<text x="50.0" y="144.73314749671212" font-size="10">8</text>
<text x="50.0" y="92.52165592362594" font-size="10">9</text>
<text x="86.79240999487399" y="92.52165592362594" font-size="10">10</text>
<text x="86.79240999487399" y="66.28370159114475" font-size="10">11</text>
<text x="107.14389967440667" y="66.28370159114475" font-size="10">12</text>
<text x="107.14389967440667" y="56.455854648178544" font-size="10">13</text>
<text x="132.9677296426733" y="56.455854648178544" font-size="10">14</text>
<text x="132.9677296426733" y="50.0" font-size="10">15</text>
<text x="146.53599952787735" y="50.0" font-size="10">16</text>
<text x="146.53599952787735" y="94.70932312291397" font-size="10">17</text>
<text x="148.88398841328424" y="94.70932312291397" font-size="10">18</text>
<text x="148.88398841328424" y="164.5937881535009" font-size="10">19</text>
<text x="200.03884100460283" y="164.5937881535009" font-size="10">20</text>
<text x="200.03884100460283" y="169.38949240561493" font-size="10">21</text>
<text x="211.66238561086558" y="169.38949240561493" font-size="10">22</text>
<text x="211.66238561086558" y="213.98878288816096" font-size="10">23</text>
<text x="224.61454952002234" y="213.98878288816096" font-size="10">24</text>
<text x="224.61454952002234" y="328.80815677413796" font-size="10">25</text>
<text x="231.01206951513214" y="328.80815677413796" font-size="10">26</text>
<text x="231.01206951513214" y="355.1134229784064" font-size="10">27</text>
<text x="242.38204765364782" y="355.1134229784064" font-size="10">28</text>
<text x="242.38204765364782" y="373.3467850199475" font-size="10">29</text>
<text x="343.1864747186183" y="373.3467850199475" font-size="10">30</text>
<text x="343.1864747186183" y="380.0437203049185" font-size="10">31</text>
<text x="390.74539296173543" y="380.0437203049185" font-size="10">32</text>
<text x="390.74539296173543" y="380.0685623377496" font-size="10">33</text>
<text x="397.0097236850581" y="380.0685623377496" font-size="10">34</text>
<text x="397.0097236850581" y="402.16153566699745" font-size="10">35</text>
<text x="416.9344726851119" y="402.16153566699745" font-size="10">36</text>
<text x="416.9344726851119" y="445.22896352403336" font-size="10">37</text>
<text x="429.8630891252344" y="445.22896352403336" font-size="10">38</text>
<text x="429.8630891252344" y="493.4097098054654" font-size="10">39</text>
<text x="447.1334505583519" y="493.4097098054654" font-size="10">40</text>
<text x="447.1334505583519" y="528.6882193838674" font-size="10">41</text>
<text x="470.3719866543223" y="528.6882193838674" font-size="10">42</text>
<text x="470.3719866543223" y="546.0226260454356" font-size="10">43</text>
<text x="501.27228488706544" y="546.0226260454356" font-size="10">44</text>
<text x="501.27228488706544" y="580.397412580998" font-size="10">45</text>
<text x="506.17758522640946" y="580.397412580998" font-size="10">46</text>
<text x="506.17758522640946" y="705.8038837214425" font-size="10">47</text>
<text x="579.1359862230294" y="705.8038837214425" font-size="10">48</text>
<text x="579.1359862230294" y="713.9950421882402" font-size="10">49</text>
<text x="587.1641244512483" y="713.9950421882402" font-size="10">50</text>
<text x="587.1641244512483" y="774.7526949144651" font-size="10">51</text>
<text x="589.6239022180496" y="774.7526949144651" font-size="10">52</text>
<text x="589.6239022180496" y="802.793390402165" font-size="10">53</text>
<text x="613.3099458197024" y="802.793390402165" font-size="10">54</text>
<text x="613.3099458197024" y="803.322538247948" font-size="10">55</text>
<text x="618.9366997805639" y="803.322538247948" font-size="10">56</text>
<text x="618.9366997805639" y="807.0507878771995" font-size="10">57</text>
<text x="642.8462859469948" y="807.0507878771995" font-size="10">58</text>
<text x="642.8462859469948" y="843.896039298925" font-size="10">59</text>
<text x="670.5846061031708" y="843.896039298925" font-size="10">60</text>
<text x="670.5846061031708" y="944.027435808717" font-size="10">61</text>
<text x="950.0" y="944.027435808717" font-size="10">62</text>
<text x="950.0" y="950.0" font-size="10">63</text>
<text x="923.0544094366336" y="950.0" font-size="10">64</text>
<text x="923.0544094366336" y="917.8458779093547" font-size="10">65</text>
<text x="907.6065657899508" y="917.8458779093547" font-size="10">66</text>
<text x="907.6065657899508" y="910.9522137987316" font-size="10">67</text>
<text x="883.8082757327669" y="910.9522137987316" font-size="10">68</text>
<text x="883.8082757327669" y="885.2459793406853" font-size="10">69</text>
<text x="856.8764475915116" y="885.2459793406853" font-size="10">70</text>
<text x="856.8764475915116" y="852.0629203245468" font-size="10">71</text>
<text x="854.2030530988974" y="852.0629203245468" font-size="10">72</text>
<text x="854.2030530988974" y="836.2449441165786" font-size="10">73</text>
<text x="824.598112049112" y="836.2449441165786" font-size="10">74</text>
<text x="824.598112049112" y="687.9400782844666" font-size="10">75</text>
<text x="809.8548621769102" y="687.9400782844666" font-size="10">76</text>
<text x="809.8548621769102" y="676.6986820339687" font-size="10">77</text>
<text x="796.4467080415369" y="676.6986820339687" font-size="10">78</text>
<text x="796.4467080415369" y="663.1560101966647" font-size="10">79</text>
<text x="807.382096344229" y="663.1560101966647" font-size="10">80</text>
<text x="807.382096344229" y="593.8141804791808" font-size="10">81</text>
<text x="828.2670470711207" y="593.8141804791808" font-size="10">82</text>
<text x="828.2670470711207" y="514.0085854176989" font-size="10">83</text>
<text x="835.6710893749056" y="514.0085854176989" font-size="10">84</text>
<text x="835.6710893749056" y="546.0033044643448" font-size="10">85</text>
<text x="807.454322661805" y="546.0033044643448" font-size="10">86</text>
<text x="807.454322661805" y="553.2660233202841" font-size="10">87</text>
<text x="786.0798380046764" y="553.2660233202841" font-size="10">88</text>
<text x="786.0798380046764" y="548.9376754939062" font-size="10">89</text>
<text x="746.6626771677194" y="548.9376754939062" font-size="10">90</text>
<text x="746.6626771677194" y="498.0642034113604" font-size="10">91</text>
<text x="690.0369626041083" y="498.0642034113604" font-size="10">92</text>
<text x="690.0369626041083" y="479.5044446606776" font-size="10">93</text>
<text x="700.8586261348279" y="479.5044446606776" font-size="10">94</text>
<text x="700.8586261348279" y="502.4269913287086" font-size="10">95</text>
<text x="708.8791967907862" y="502.4269913287086" font-size="10">96</text>
<text x="708.8791967907862" y="552.0897907051764" font-size="10">97</text>
<text x="706.5358540427673" y="552.0897907051764" font-size="10">98</text>
<text x="706.5358540427673" y="580.8084980384274" font-size="10">99</text>
<text x="700.1151737567388" y="580.8084980384274" font-size="10">100</text>
<text x="700.1151737567388" y="598.4708069868844" font-size="10">101</text>
<text x="669.0526126955235" y="598.4708069868844" font-size="10">102</text>
<text x="669.0526126955235" y="605.4080073873681" font-size="10">103</text>
<text x="655.5697331838278" y="605.4080073873681" font-size="10">104</text>
<text x="655.5697331838278" y="639.3033928752158" font-size="10">105</text>
<text x="637.6641180569432" y="639.3033928752158" font-size="10">106</text>
<text x="637.6641180569432" y="650.8266458264967" font-size="10">107</text>
<text x="624.4670815886363" y="650.8266458264967" font-size="10">108</text>
<text x="624.4670815886363" y="691.5981303512485" font-size="10">109</text>
<text x="614.7537330130001" y="691.5981303512485" font-size="10">110</text>
<text x="614.7537330130001" y="726.8756362111523" font-size="10">111</text>
<text x="594.7296904252846" y="726.8756362111523" font-size="10">112</text>
<text x="594.7296904252846" y="656.0237747454946" font-size="10">113</text>
<text x="591.9618948684703" y="656.0237747454946" font-size="10">114</text>
<text x="591.9618948684703" y="650.8266458264967" font-size="10">115</text>
<text x="578.6812631251914" y="650.8266458264967" font-size="10">116</text>
<text x="578.6812631251914" y="480.14738909119706" font-size="10">117</text>
<text x="575.8420860030535" y="480.14738909119706" font-size="10">118</text>
<text x="575.8420860030535" y="464.11148050430165" font-size="10">119</text>
<text x="547.041313899495" y="464.11148050430165" font-size="10">120</text>
<text x="547.041313899495" y="461.6361224904598" font-size="10">121</text>
<text x="522.7292384828297" y="461.6361224904598" font-size="10">122</text>
<text x="522.7292384828297" y="236.85549771472816" font-size="10">123</text>
</svg>