<?xml version="1.0" encoding="UTF-8"?>
<svg xmlns="http://www.w3.org/2000/svg" xmlns:xlink="http://www.w3.org/1999/xlink"
     width="1000" height="1000" viewBox="0 0 1000 1000">
<defs>
</defs>
<path d="M465.5485082079468,153.72914758506374 L465.5485082079468,151.59459020369144 L464.6192806901256,151.59459020369144 L464.6192806901256,85.83554464094408 L448.8274049941347,85.83554464094408 L448.8274049941347,83.9978008575243 L421.2962214887836,83.9978008575243 L421.2962214887836,50.0 L50.0,50.0 L50.0,72.36294798109773 L109.46929265436012,72.36294798109773 L109.46929265436012,77.76287875755514 L122.98206692414966,77.76287875755514 L122.98206692414966,127.98138027976671 L138.03940727413635,127.98138027976671 L138.03940727413635,257.2672240653056 L145.47674644293056,257.2672240653056 L145.47674644293056,286.88677712609285 L158.6947408880522,286.88677712609285 L158.6947408880522,307.4174203164034 L275.8833881093559,307.4174203164034 L275.8833881093559,314.9581244658132 L331.1722822035342,314.9581244658132 L331.1722822035342,314.98609642792394 L338.4547842184495,314.98609642792394 L338.4547842184495,339.8626360042476 L361.61799688207003,339.8626360042476 L361.61799688207003,388.35627049923363 L376.6479624815427,388.35627049923363 L376.6479624815427,442.6074671953399 L396.7253574164455,442.6074671953399 L396.7253574164455,482.3308320246003 L423.74096266099485,482.3308320246003 L423.74096266099485,501.8492574950967 L459.6636324689001,501.8492574950967 L459.6636324689001,540.5550362481781 L465.36621446573474,540.5550362481781 L465.36621446573474,681.7618804316347 L550.1828893396738,681.7618804316347 L550.1828893396738,690.9850698474963 L559.5158788329254,690.9850698474963 L559.5158788329254,759.397778724827 L562.3754559105341,759.397778724827 L562.3754559105341,790.9714135023581 L589.9113041715783,790.9714135023581 L589.9113041715783,791.5672304225698 L596.4526010582266,791.5672304225698 L596.4526010582266,795.7652144634823 L624.2483253140606,795.7652144634823 L624.2483253140606,837.2527200849519 L656.4950857980876,837.2527200849519 L656.4950857980876,950.0 L950.0,950.0 L950.0,920.5197416596227 L932.0413452846253,920.5197416596227 L932.0413452846253,912.7575221739019 L904.3750066209069,912.7575221739019 L904.3750066209069,883.8124748358296 L873.0658211122569,883.8124748358296 L873.0658211122569,846.4485732651144 L869.957907172362,846.4485732651144 L869.957907172362,828.6376382999264 L839.8063994537598,828.6376382999264 L839.8063994537598,501.8275015245661 L744.9384854665808,501.8275015245661 L744.9384854665808,447.84839573262764 L549.6542579467136,447.84839573262764 L549.6542579467136,427.67418315042465 L546.3536159426619,427.67418315042465 L546.3536159426619,409.61785779035625 L512.8717181727379,409.61785779035625 L512.8717181727379,406.8306212930675 L484.6080861857716,406.8306212930675 L484.6080861857716,153.72914758506374 Z" fill="none" stroke="black" stroke-width="3" />
<text x="465.5485082079468" y="153.72914758506374" font-size="10">0</text>
<text x="465.5485082079468" y="151.59459020369144" font-size="10">1</text>
<text x="464.6192806901256" y="151.59459020369144" font-size="10">2</text>
<text x="464.6192806901256" y="85.83554464094408" font-size="10">3</text>
<text x="448.8274049941347" y="85.83554464094408" font-size="10">4</text>
<text x="448.8274049941347" y="83.9978008575243" font-size="10">5</text>
<text x="421.2962214887836" y="83.9978008575243" font-size="10">6</text>
<text x="421.2962214887836" y="50.0" font-size="10">7</text>
<text x="50.0" y="50.0" font-size="10">8</text>
<text x="50.0" y="72.36294798109773" font-size="10">9</text>
<text x="109.46929265436012" y="72.36294798109773" font-size="10">10</text>
<text x="109.46929265436012" y="77.76287875755514" font-size="10">11</text>
<text x="122.98206692414966" y="77.76287875755514" font-size="10">12</text>
<text x="122.98206692414966" y="127.98138027976671" font-size="10">13</text>
<text x="138.03940727413635" y="127.98138027976671" font-size="10">14</text>
<text x="138.03940727413635" y="257.2672240653056" font-size="10">15</text>
<text x="145.47674644293056" y="257.2672240653056" font-size="10">16</text>
<text x="145.47674644293056" y="286.88677712609285" font-size="10">17</text>
<text x="158.6947408880522" y="286.88677712609285" font-size="10">18</text>
<text x="158.6947408880522" y="307.4174203164034" font-size="10">19</text>
<text x="275.8833881093559" y="307.4174203164034" font-size="10">20</text>
<text x="275.8833881093559" y="314.9581244658132" font-size="10">21</text>
<text x="331.1722822035342" y="314.9581244658132" font-size="10">22</text>
<text x="331.1722822035342" y="314.98609642792394" font-size="10">23</text>
<text x="338.4547842184495" y="314.98609642792394" font-size="10">24</text>
<text x="338.4547842184495" y="339.8626360042476" font-size="10">25</text>
<text x="361.61799688207003" y="339.8626360042476" font-size="10">26</text>
<text x="361.61799688207003" y="388.35627049923363" font-size="10">27</text>
<text x="376.6479624815427" y="388.35627049923363" font-size="10">28</text>
<text x="376.6479624815427" y="442.6074671953399" font-size="10">29</text>
<text x="396.7253574164455" y="442.6074671953399" font-size="10">30</text>
<text x="396.7253574164455" y="482.3308320246003" font-size="10">31</text>
<text x="423.74096266099485" y="482.3308320246003" font-size="10">32</text>
<text x="423.74096266099485" y="501.8492574950967" font-size="10">33</text>
<text x="459.6636324689001" y="501.8492574950967" font-size="10">34</text>
<text x="459.6636324689001" y="540.5550362481781" font-size="10">35</text>
<text x="465.36621446573474" y="540.5550362481781" font-size="10">36</text>
<text x="465.36621446573474" y="681.7618804316347" font-size="10">37</text>
<text x="550.1828893396738" y="681.7618804316347" font-size="10">38</text>
<text x="550.1828893396738" y="690.9850698474963" font-size="10">39</text>
<text x="559.5158788329254" y="690.9850698474963" font-size="10">40</text>
<text x="559.5158788329254" y="759.397778724827" font-size="10">41</text>
<text x="562.3754559105341" y="759.397778724827" font-size="10">42</text>
<text x="562.3754559105341" y="790.9714135023581" font-size="10">43</text>
<text x="589.9113041715783" y="790.9714135023581" font-size="10">44</text>
<text x="589.9113041715783" y="791.5672304225698" font-size="10">45</text>
<text x="596.4526010582266" y="791.5672304225698" font-size="10">46</text>
<text x="596.4526010582266" y="795.7652144634823" font-size="10">47</text>
<text x="624.2483253140606" y="795.7652144634823" font-size="10">48</text>
<text x="624.2483253140606" y="837.2527200849519" font-size="10">49</text>
<text x="656.4950857980876" y="837.2527200849519" font-size="10">50</text>
<text x="656.4950857980876" y="950.0" font-size="10">51</text>
<text x="950.0" y="950.0" font-size="10">52</text>
<text x="950.0" y="920.5197416596227" font-size="10">53</text>
<text x="932.0413452846253" y="920.5197416596227" font-size="10">54</text>
<text x="932.0413452846253" y="912.7575221739019" font-size="10">55</text>
<text x="904.3750066209069" y="912.7575221739019" font-size="10">56</text>
<text x="904.3750066209069" y="883.8124748358296" font-size="10">57</text>
<text x="873.0658211122569" y="883.8124748358296" font-size="10">58</text>
<text x="873.0658211122569" y="846.4485732651144" font-size="10">59</text>
<text x="869.957907172362" y="846.4485732651144" font-size="10">60</text>
<text x="869.957907172362" y="828.6376382999264" font-size="10">61</text>
<text x="839.8063994537598" y="828.6376382999264" font-size="10">62</text>
<text x="839.8063994537598" y="501.8275015245661" font-size="10">63</text>
<text x="744.9384854665808" y="501.8275015245661" font-size="10">64</text>
<text x="744.9384854665808" y="447.84839573262764" font-size="10">65</text>
<text x="549.6542579467136" y="447.84839573262764" font-size="10">66</text>
<text x="549.6542579467136" y="427.67418315042465" font-size="10">67</text>
<text x="546.3536159426619" y="427.67418315042465" font-size="10">68</text>
<text x="546.3536159426619" y="409.61785779035625" font-size="10">69</text>
<text x="512.8717181727379" y="409.61785779035625" font-size="10">70</text>
<text x="512.8717181727379" y="406.8306212930675" font-size="10">71</text>
<text x="484.6080861857716" y="406.8306212930675" font-size="10">72</text>
<text x="484.6080861857716" y="153.72914758506374" font-size="10">73</text>
</svg>